<?xml version="1.0" encoding="UTF-8" standalone="no"?>
<svg
   xmlns:dc="http://purl.org/dc/elements/1.1/"
   xmlns:cc="http://creativecommons.org/ns#"
   xmlns:rdf="http://www.w3.org/1999/02/22-rdf-syntax-ns#"
   xmlns:svg="http://www.w3.org/2000/svg"
   xmlns="http://www.w3.org/2000/svg"
   id="svg8"
   version="1.1"
   viewBox="0 0 38.062202 38.062202"
   height="38.062202mm"
   width="38.062202mm">
  <defs
     id="defs2" />
  <metadata
     id="metadata5">
    <rdf:RDF>
      <cc:Work
         rdf:about="">
        <dc:format>image/svg+xml</dc:format>
        <dc:type
           rdf:resource="http://purl.org/dc/dcmitype/StillImage" />
        <dc:title></dc:title>
      </cc:Work>
    </rdf:RDF>
  </metadata>
  <g
     transform="translate(-103.43319,-95.784367)"
     id="layer1">
    <text
       id="text817"
       y="129.93452"
       x="40.821426"
       style="font-style:normal;font-weight:normal;font-size:10.58333302px;line-height:1.25;font-family:sans-serif;letter-spacing:0px;word-spacing:0px;fill:#000000;fill-opacity:1;stroke:none;stroke-width:0.26458332;stroke-opacity:1"
       xml:space="preserve"><tspan
         id="tspan819"
         style="line-height:18.25;fill:#000000;fill-opacity:1;stroke:none;stroke-width:0.26458332;stroke-opacity:1"
         y="139.29829"
         x="40.821426" /></text>
    <flowRoot
       style="font-style:normal;font-weight:normal;font-size:40px;line-height:1.25;font-family:sans-serif;letter-spacing:0px;word-spacing:0px;fill:#000000;fill-opacity:1;stroke:none;stroke-opacity:1"
       id="flowRoot823"
       xml:space="preserve"><flowRegion
         style="fill:#000000;fill-opacity:1;stroke:none;stroke-opacity:1"
         id="flowRegion825"><rect
           style="fill:#000000;fill-opacity:1;stroke:none;stroke-opacity:1"
           y="302.51968"
           x="48.57143"
           height="340"
           width="297.14285"
           id="rect827" /></flowRegion><flowPara
         id="flowPara829"></flowPara></flowRoot>    <path
       id="path837"
       transform="matrix(0.26458333,0,0,0.26458333,103.43319,95.784367)"
       d="M 71.927734,0.5 A 71.428571,71.428571 0 0 0 0.5,71.927734 71.428571,71.428571 0 0 0 71.927734,143.35742 71.428571,71.428571 0 0 0 143.35742,71.927734 71.428571,71.428571 0 0 0 71.927734,0.5 Z m 23.335938,42.595703 c 8.997958,0 16.979648,4.928764 20.109378,12.009766 0.1956,0.430337 0.35156,1.13601 0.35156,1.605469 0,2.151685 -1.76042,3.912109 -3.91211,3.912109 -1.40838,0 -3.05191,-1.056645 -3.59961,-2.347656 -1.9952,-4.498979 -6.88538,-7.355469 -12.949218,-7.355469 -5.907355,0 -14.31836,2.973445 -14.31836,8.919922 0,2.386415 1.877966,4.186023 3.794922,5.164062 6.76803,3.403576 16.432316,2.700354 23.748046,5.830078 4.61634,1.9952 9.19336,6.062285 9.19336,12.673828 0,11.501738 -12.5201,17.253908 -22.496093,17.253908 -10.210726,0 -18.934197,-5.165511 -22.416016,-13.263673 -0.195608,-0.430337 -0.351562,-1.094995 -0.351562,-1.564453 0,-2.151686 1.760424,-3.91211 3.912109,-3.91211 1.447498,0 3.051908,1.056586 3.59961,2.386719 2.26905,5.28141 8.174857,8.529297 15.255859,8.529297 6.611543,0 14.632813,-2.935509 14.632813,-9.429688 0,-2.738508 -2.23107,-4.537645 -4.42188,-5.476562 -7.433091,-3.168846 -16.899167,-2.347964 -24.175777,-6.025391 -4.146885,-2.073442 -8.138672,-5.984809 -8.138672,-12.166015 0,-10.836671 11.85355,-16.744141 22.181641,-16.744141 z M 30.283203,57.21875 c 1.017161,0 2.268586,0.586828 2.894531,1.291016 l 13.22461,14.279296 13.183594,-14.240234 c 0.625944,-0.704188 1.916492,-1.330078 2.894531,-1.330078 2.190807,0 3.951172,1.838608 3.951172,3.951172 0,0.860674 -0.50888,2.073274 -1.095703,2.699219 L 51.722656,78.541016 65.53125,93.484375 c 0.586823,0.625945 1.095703,1.838545 1.095703,2.699219 0,2.151685 -1.760424,3.912106 -3.912109,3.912106 -0.978039,0 -2.307649,-0.586824 -2.933594,-1.291012 L 46.402344,84.291016 32.982422,98.765625 c -0.625945,0.704188 -1.916492,1.291015 -2.894531,1.291015 -2.151686,0 -3.91211,-1.760423 -3.91211,-3.912109 0,-0.860674 0.50888,-2.073274 1.095703,-2.699219 l 13.810547,-14.904296 -13.615234,-14.75 c -0.586823,-0.625945 -1.095703,-1.799482 -1.095703,-2.660157 0,-2.151685 1.760424,-3.912109 3.912109,-3.912109 z"
       style="fill:#000000;fill-opacity:1;stroke:none;stroke-width:0.99999994;stroke-opacity:1" />
  </g>
</svg>
